<svg width="13" height="9" viewBox="0 0 13 9" fill="none" xmlns="http://www.w3.org/2000/svg">
<path d="M12.0311 1.31625C11.8178 1.10671 11.5293 0.989105 11.2285 0.989105C10.9278 0.989105 10.6392 1.10671 10.4259 1.31625L6.33905 5.29875L2.30908 1.31625C2.09579 1.10671 1.80726 0.989105 1.50651 0.989105C1.20575 0.989105 0.917222 1.10671 0.703927 1.31625C0.597226 1.42083 0.512534 1.54526 0.454739 1.68235C0.396943 1.81944 0.367188 1.96648 0.367188 2.115C0.367188 2.26351 0.396943 2.41055 0.454739 2.54765C0.512534 2.68474 0.597226 2.80916 0.703927 2.91375L5.53078 7.68375C5.63661 7.78919 5.76252 7.87289 5.90125 7.93C6.03997 7.98712 6.18877 8.01652 6.33905 8.01652C6.48934 8.01652 6.63813 7.98712 6.77686 7.93C6.91559 7.87289 7.0415 7.78919 7.14733 7.68375L12.0311 2.91375C12.1378 2.80916 12.2225 2.68474 12.2803 2.54765C12.3381 2.41055 12.3678 2.26351 12.3678 2.115C12.3678 1.96648 12.3381 1.81944 12.2803 1.68235C12.2225 1.54526 12.1378 1.42083 12.0311 1.31625Z" fill="black"/>
</svg>
