<svg width="25" height="25" viewBox="0 0 25 25" fill="none" xmlns="http://www.w3.org/2000/svg">
<path d="M16.3645 13.2396C17.3858 12.4361 18.1312 11.3343 18.4971 10.0874C18.8629 8.84058 18.8311 7.51069 18.406 6.28278C17.9808 5.05486 17.1835 3.98999 16.125 3.23631C15.0665 2.48262 13.7994 2.07761 12.4999 2.07761C11.2005 2.07761 9.93339 2.48262 8.87486 3.23631C7.81634 3.98999 7.01904 5.05486 6.59391 6.28278C6.16877 7.51069 6.13693 8.84058 6.50281 10.0874C6.8687 11.3343 7.61411 12.4361 8.63535 13.2396C6.88543 13.9407 5.35857 15.1035 4.21753 16.6041C3.0765 18.1047 2.36406 19.8868 2.15619 21.7604C2.14114 21.8972 2.15318 22.0356 2.19163 22.1678C2.23008 22.2999 2.29417 22.4232 2.38026 22.5305C2.55412 22.7474 2.807 22.8863 3.08327 22.9167C3.35954 22.9471 3.63656 22.8665 3.8534 22.6926C4.07024 22.5187 4.20913 22.2659 4.23952 21.9896C4.46825 19.9533 5.43919 18.0727 6.96683 16.7071C8.49447 15.3414 10.4717 14.5865 12.5208 14.5865C14.5698 14.5865 16.5471 15.3414 18.0747 16.7071C19.6023 18.0727 20.5733 19.9533 20.802 21.9896C20.8303 22.2455 20.9525 22.4819 21.1448 22.6531C21.3372 22.8243 21.5862 22.9182 21.8437 22.9167H21.9583C22.2313 22.8852 22.4809 22.7472 22.6526 22.5326C22.8243 22.3179 22.9042 22.0441 22.8749 21.7708C22.6661 19.8919 21.9498 18.1052 20.8029 16.6023C19.656 15.0994 18.1217 13.937 16.3645 13.2396ZM12.4999 12.5C11.6758 12.5 10.8703 12.2556 10.1851 11.7978C9.49986 11.3399 8.9658 10.6892 8.65044 9.92785C8.33507 9.16649 8.25256 8.32871 8.41333 7.52046C8.5741 6.7122 8.97094 5.96977 9.55366 5.38705C10.1364 4.80433 10.8788 4.4075 11.6871 4.24673C12.4953 4.08595 13.3331 4.16847 14.0944 4.48383C14.8558 4.7992 15.5066 5.33325 15.9644 6.01846C16.4222 6.70366 16.6666 7.50924 16.6666 8.33333C16.6666 9.4384 16.2276 10.4982 15.4462 11.2796C14.6648 12.061 13.605 12.5 12.4999 12.5Z" fill="white"/>
</svg>
