<svg width="25" height="25" viewBox="0 0 25 25" fill="none" xmlns="http://www.w3.org/2000/svg">
<path d="M20.7395 16.1562H16.0208C15.7445 16.1562 15.4795 16.266 15.2842 16.4613C15.0888 16.6567 14.9791 16.9216 14.9791 17.1979C14.9791 17.4742 15.0888 17.7391 15.2842 17.9345C15.4795 18.1298 15.7445 18.2396 16.0208 18.2396H18.5208C17.3717 19.4403 15.8899 20.2701 14.2657 20.6223C12.6415 20.9744 10.9491 20.8329 9.40594 20.2159C7.86278 19.5988 6.53937 18.5345 5.60574 17.1595C4.67212 15.7846 4.17094 14.1619 4.16659 12.5C4.16659 12.2237 4.05684 11.9588 3.86149 11.7634C3.66614 11.5681 3.40119 11.4583 3.12492 11.4583C2.84865 11.4583 2.5837 11.5681 2.38835 11.7634C2.193 11.9588 2.08325 12.2237 2.08325 12.5C2.08876 14.5342 2.68973 16.5222 3.81201 18.2188C4.93428 19.9153 6.52874 21.2462 8.39861 22.0471C10.2685 22.848 12.3319 23.0839 14.3343 22.7257C16.3367 22.3674 18.1904 21.4308 19.6666 20.0312V21.875C19.6666 22.1513 19.7763 22.4162 19.9717 22.6116C20.167 22.8069 20.432 22.9167 20.7083 22.9167C20.9845 22.9167 21.2495 22.8069 21.4448 22.6116C21.6402 22.4162 21.7499 22.1513 21.7499 21.875V17.1875C21.7473 16.9184 21.6407 16.6607 21.4523 16.4684C21.264 16.2762 21.0085 16.1643 20.7395 16.1562ZM12.4999 2.08333C9.82949 2.09095 7.26397 3.12386 5.33325 4.96875V3.12499C5.33325 2.84873 5.22351 2.58378 5.02816 2.38843C4.8328 2.19307 4.56785 2.08333 4.29159 2.08333C4.01532 2.08333 3.75037 2.19307 3.55502 2.38843C3.35967 2.58378 3.24992 2.84873 3.24992 3.12499V7.8125C3.24992 8.08876 3.35967 8.35371 3.55502 8.54906C3.75037 8.74442 4.01532 8.85416 4.29159 8.85416H8.97909C9.25535 8.85416 9.5203 8.74442 9.71566 8.54906C9.91101 8.35371 10.0208 8.08876 10.0208 7.8125C10.0208 7.53623 9.91101 7.27128 9.71566 7.07593C9.5203 6.88058 9.25535 6.77083 8.97909 6.77083H6.47909C7.62749 5.57069 9.10835 4.74114 10.7316 4.38865C12.3548 4.03616 14.0464 4.17681 15.5891 4.79256C17.1318 5.40831 18.4553 6.47105 19.3897 7.84437C20.3242 9.2177 20.8268 10.8389 20.8333 12.5C20.8333 12.7763 20.943 13.0412 21.1383 13.2366C21.3337 13.4319 21.5987 13.5417 21.8749 13.5417C22.1512 13.5417 22.4161 13.4319 22.6115 13.2366C22.8068 13.0412 22.9166 12.7763 22.9166 12.5C22.9166 11.1321 22.6472 9.77752 22.1237 8.51371C21.6002 7.2499 20.8329 6.10158 19.8656 5.1343C18.8983 4.16702 17.75 3.39974 16.4862 2.87625C15.2224 2.35276 13.8679 2.08333 12.4999 2.08333Z" fill="white"/>
</svg>
