<svg width="24" height="24" viewBox="0 0 24 24" fill="none" xmlns="http://www.w3.org/2000/svg">
<path d="M7.0001 13.0001L14.5901 13.0001L11.2901 16.2901C11.1018 16.4784 10.996 16.7338 10.996 17.0001C10.996 17.2664 11.1018 17.5218 11.2901 17.7101C11.4784 17.8984 11.7338 18.0041 12.0001 18.0041C12.2664 18.0041 12.5218 17.8984 12.7101 17.7101L17.7101 12.7101C17.8011 12.615 17.8725 12.5028 17.9201 12.3801C18.0201 12.1366 18.0201 11.8635 17.9201 11.6201C17.8725 11.4973 17.8011 11.3852 17.7101 11.2901L12.7101 6.29006C12.6171 6.19633 12.5065 6.12194 12.3847 6.07117C12.2628 6.0204 12.1321 5.99426 12.0001 5.99426C11.8681 5.99426 11.7374 6.0204 11.6155 6.07117C11.4937 6.12194 11.3831 6.19633 11.2901 6.29006C11.1964 6.38302 11.122 6.49362 11.0712 6.61548C11.0204 6.73734 10.9943 6.86805 10.9943 7.00006C10.9943 7.13207 11.0204 7.26278 11.0712 7.38464C11.122 7.50649 11.1964 7.61709 11.2901 7.71006L14.5901 11.0001L7.0001 11.0001C6.73489 11.0001 6.48053 11.1054 6.293 11.293C6.10546 11.4805 6.0001 11.7348 6.0001 12.0001C6.0001 12.2653 6.10546 12.5196 6.293 12.7072C6.48053 12.8947 6.73489 13.0001 7.0001 13.0001Z" fill="black"/>
</svg>
